<svg width="181" height="60" viewBox="0 0 181 60" fill="none" xmlns="http://www.w3.org/2000/svg">
<rect width="181" height="60" fill="white"/>
<path d="M40.9281 12C41.0119 12 41.0956 12 41.1842 12C41.3897 14.5388 40.4206 16.4358 39.2429 17.8095C38.0873 19.1738 36.5049 20.4969 33.9456 20.2961C33.7749 17.7937 34.7455 16.0374 35.9216 14.6668C37.0124 13.3895 39.0121 12.2529 40.9281 12Z" fill="black"/>
<path d="M48.6758 38.4249C48.6758 38.4502 48.6758 38.4723 48.6758 38.496C47.9565 40.6744 46.9306 42.5413 45.6786 44.2739C44.5356 45.8468 43.135 47.9635 40.6342 47.9635C38.4732 47.9635 37.0378 46.574 34.8231 46.5361C32.4803 46.4981 31.1919 47.698 29.0499 47.9999C28.8049 47.9999 28.5599 47.9999 28.3196 47.9999C26.7467 47.7723 25.4773 46.5266 24.5525 45.4042C21.8256 42.0876 19.7183 37.8036 19.3263 32.3213C19.3263 31.7839 19.3263 31.248 19.3263 30.7105C19.4923 26.7869 21.3987 23.5968 23.9328 22.0508C25.2702 21.2287 27.1087 20.5284 29.1558 20.8414C30.0332 20.9774 30.9295 21.2777 31.7152 21.5749C32.4597 21.8611 33.3908 22.3685 34.2729 22.3416C34.8705 22.3242 35.4649 22.0128 36.0672 21.7931C37.8314 21.156 39.5608 20.4257 41.8403 20.7687C44.5799 21.1829 46.5243 22.4001 47.7257 24.2781C45.4082 25.753 43.5761 27.9757 43.8891 31.7712C44.1673 35.219 46.1718 37.2361 48.6758 38.4249Z" fill="black"/>
<path d="M62.4932 24.048V22.968H64.6772C65.2052 22.968 65.6732 22.884 66.0812 22.716C66.4972 22.54 66.8492 22.3 67.1372 21.996C67.4332 21.692 67.6572 21.336 67.8092 20.928C67.9612 20.52 68.0372 20.08 68.0372 19.608C68.0372 19.112 67.9612 18.664 67.8092 18.264C67.6572 17.856 67.4332 17.504 67.1372 17.208C66.8492 16.904 66.4972 16.672 66.0812 16.512C65.6732 16.352 65.2052 16.272 64.6772 16.272H62.4932V15.192H64.5572C65.3492 15.192 66.0372 15.316 66.6212 15.564C67.2052 15.804 67.6892 16.132 68.0732 16.548C68.4652 16.956 68.7572 17.416 68.9492 17.928C69.1412 18.432 69.2372 18.948 69.2372 19.476V19.74C69.2372 20.252 69.1412 20.764 68.9492 21.276C68.7572 21.788 68.4652 22.252 68.0732 22.668C67.6892 23.084 67.2052 23.42 66.6212 23.676C66.0372 23.924 65.3492 24.048 64.5572 24.048H62.4932ZM61.5572 24.048V15.192H62.7332V24.048H61.5572ZM73.8333 24.216C73.2733 24.216 72.7813 24.12 72.3573 23.928C71.9333 23.736 71.5733 23.484 71.2773 23.172C70.9893 22.852 70.7693 22.496 70.6173 22.104C70.4733 21.712 70.4013 21.312 70.4013 20.904V20.688C70.4013 20.28 70.4773 19.88 70.6293 19.488C70.7813 19.088 71.0053 18.732 71.3013 18.42C71.5973 18.1 71.9573 17.848 72.3813 17.664C72.8053 17.472 73.2893 17.376 73.8333 17.376C74.3773 17.376 74.8613 17.472 75.2853 17.664C75.7093 17.848 76.0693 18.1 76.3653 18.42C76.6613 18.732 76.8853 19.088 77.0373 19.488C77.1893 19.88 77.2653 20.28 77.2653 20.688V20.904C77.2653 21.312 77.1893 21.712 77.0373 22.104C76.8933 22.496 76.6733 22.852 76.3773 23.172C76.0893 23.484 75.7333 23.736 75.3093 23.928C74.8853 24.12 74.3933 24.216 73.8333 24.216ZM73.8333 23.184C74.3133 23.184 74.7213 23.08 75.0573 22.872C75.4013 22.656 75.6613 22.368 75.8373 22.008C76.0213 21.648 76.1133 21.244 76.1133 20.796C76.1133 20.34 76.0213 19.932 75.8373 19.572C75.6533 19.212 75.3893 18.928 75.0453 18.72C74.7093 18.512 74.3053 18.408 73.8333 18.408C73.3693 18.408 72.9653 18.512 72.6213 18.72C72.2773 18.928 72.0133 19.212 71.8293 19.572C71.6453 19.932 71.5533 20.34 71.5533 20.796C71.5533 21.244 71.6413 21.648 71.8173 22.008C72.0013 22.368 72.2613 22.656 72.5973 22.872C72.9413 23.08 73.3533 23.184 73.8333 23.184ZM80.7455 24L82.0415 17.808H83.6015L85.1135 24H84.1295L82.6175 17.832H83.0015L81.6935 24H80.7455ZM80.1575 24V23.088H81.4895V24H80.1575ZM79.8935 24L78.0815 17.592H79.1855L80.9495 24H79.8935ZM84.3695 24V23.088H85.7015V24H84.3695ZM84.9095 24L86.4455 17.592H87.4895L85.9175 24H84.9095ZM89.0454 24V17.592H89.9574V20.34H89.8134C89.8134 19.708 89.8974 19.176 90.0654 18.744C90.2414 18.304 90.5054 17.972 90.8574 17.748C91.2094 17.516 91.6534 17.4 92.1894 17.4H92.2374C93.0454 17.4 93.6414 17.652 94.0254 18.156C94.4174 18.66 94.6134 19.388 94.6134 20.34V24H93.4614V20.1C93.4614 19.604 93.3214 19.208 93.0414 18.912C92.7614 18.608 92.3774 18.456 91.8894 18.456C91.3854 18.456 90.9774 18.612 90.6654 18.924C90.3534 19.236 90.1974 19.652 90.1974 20.172V24H89.0454ZM96.7932 24V15.24H97.9452V24H96.7932ZM95.9052 16.152V15.24H97.9452V16.152H95.9052ZM103.107 24.216C102.547 24.216 102.055 24.12 101.631 23.928C101.207 23.736 100.847 23.484 100.551 23.172C100.263 22.852 100.043 22.496 99.8908 22.104C99.7468 21.712 99.6748 21.312 99.6748 20.904V20.688C99.6748 20.28 99.7508 19.88 99.9028 19.488C100.055 19.088 100.279 18.732 100.575 18.42C100.871 18.1 101.231 17.848 101.655 17.664C102.079 17.472 102.563 17.376 103.107 17.376C103.651 17.376 104.135 17.472 104.559 17.664C104.983 17.848 105.343 18.1 105.639 18.42C105.935 18.732 106.159 19.088 106.311 19.488C106.463 19.88 106.539 20.28 106.539 20.688V20.904C106.539 21.312 106.463 21.712 106.311 22.104C106.167 22.496 105.947 22.852 105.651 23.172C105.363 23.484 105.007 23.736 104.583 23.928C104.159 24.12 103.667 24.216 103.107 24.216ZM103.107 23.184C103.587 23.184 103.995 23.08 104.331 22.872C104.675 22.656 104.935 22.368 105.111 22.008C105.295 21.648 105.387 21.244 105.387 20.796C105.387 20.34 105.295 19.932 105.111 19.572C104.927 19.212 104.663 18.928 104.319 18.72C103.983 18.512 103.579 18.408 103.107 18.408C102.643 18.408 102.239 18.512 101.895 18.72C101.551 18.928 101.287 19.212 101.103 19.572C100.919 19.932 100.827 20.34 100.827 20.796C100.827 21.244 100.915 21.648 101.091 22.008C101.275 22.368 101.535 22.656 101.871 22.872C102.215 23.08 102.627 23.184 103.107 23.184ZM112.14 24V22.08H111.948V19.86C111.948 19.42 111.832 19.088 111.6 18.864C111.376 18.64 111.044 18.528 110.604 18.528C110.356 18.528 110.1 18.532 109.836 18.54C109.572 18.548 109.32 18.556 109.08 18.564C108.84 18.572 108.632 18.584 108.456 18.6V17.592C108.632 17.576 108.816 17.564 109.008 17.556C109.208 17.54 109.412 17.532 109.62 17.532C109.828 17.524 110.028 17.52 110.22 17.52C110.876 17.52 111.412 17.6 111.828 17.76C112.244 17.912 112.552 18.164 112.752 18.516C112.952 18.868 113.052 19.344 113.052 19.944V24H112.14ZM110.04 24.168C109.56 24.168 109.144 24.088 108.792 23.928C108.448 23.76 108.18 23.52 107.988 23.208C107.804 22.896 107.712 22.52 107.712 22.08C107.712 21.624 107.812 21.244 108.012 20.94C108.22 20.636 108.52 20.408 108.912 20.256C109.304 20.096 109.776 20.016 110.328 20.016H112.068V20.88H110.28C109.816 20.88 109.46 20.992 109.212 21.216C108.964 21.44 108.84 21.728 108.84 22.08C108.84 22.432 108.964 22.716 109.212 22.932C109.46 23.148 109.816 23.256 110.28 23.256C110.552 23.256 110.812 23.208 111.06 23.112C111.308 23.008 111.512 22.84 111.672 22.608C111.84 22.368 111.932 22.04 111.948 21.624L112.26 22.08C112.22 22.536 112.108 22.92 111.924 23.232C111.748 23.536 111.5 23.768 111.18 23.928C110.868 24.088 110.488 24.168 110.04 24.168ZM117.843 24.216C117.387 24.216 116.967 24.132 116.583 23.964C116.199 23.796 115.863 23.56 115.575 23.256C115.295 22.952 115.075 22.6 114.915 22.2C114.763 21.8 114.687 21.368 114.687 20.904V20.688C114.687 20.232 114.763 19.804 114.915 19.404C115.067 19.004 115.279 18.652 115.551 18.348C115.831 18.044 116.159 17.808 116.535 17.64C116.919 17.464 117.343 17.376 117.807 17.376C118.295 17.376 118.739 17.48 119.139 17.688C119.539 17.888 119.867 18.204 120.122 18.636C120.378 19.068 120.523 19.628 120.555 20.316L120.075 19.548V15.24H121.227V24H120.315V21.156H120.651C120.619 21.884 120.467 22.476 120.195 22.932C119.923 23.38 119.579 23.708 119.163 23.916C118.755 24.116 118.315 24.216 117.843 24.216ZM117.999 23.208C118.391 23.208 118.747 23.12 119.067 22.944C119.387 22.768 119.643 22.516 119.835 22.188C120.027 21.852 120.122 21.46 120.122 21.012V20.46C120.122 20.02 120.023 19.648 119.823 19.344C119.631 19.032 119.371 18.796 119.043 18.636C118.723 18.468 118.371 18.384 117.987 18.384C117.563 18.384 117.187 18.484 116.859 18.684C116.539 18.884 116.287 19.164 116.103 19.524C115.927 19.884 115.839 20.308 115.839 20.796C115.839 21.284 115.931 21.712 116.115 22.08C116.299 22.44 116.555 22.72 116.883 22.92C117.211 23.112 117.583 23.208 117.999 23.208ZM129.122 24.216C128.562 24.216 128.07 24.12 127.646 23.928C127.222 23.736 126.862 23.484 126.566 23.172C126.278 22.852 126.058 22.496 125.906 22.104C125.762 21.712 125.69 21.312 125.69 20.904V20.688C125.69 20.28 125.766 19.88 125.918 19.488C126.07 19.088 126.294 18.732 126.59 18.42C126.886 18.1 127.246 17.848 127.67 17.664C128.094 17.472 128.578 17.376 129.122 17.376C129.666 17.376 130.15 17.472 130.574 17.664C130.998 17.848 131.358 18.1 131.654 18.42C131.95 18.732 132.174 19.088 132.326 19.488C132.478 19.88 132.554 20.28 132.554 20.688V20.904C132.554 21.312 132.478 21.712 132.326 22.104C132.182 22.496 131.962 22.852 131.666 23.172C131.378 23.484 131.022 23.736 130.598 23.928C130.174 24.12 129.682 24.216 129.122 24.216ZM129.122 23.184C129.602 23.184 130.01 23.08 130.346 22.872C130.69 22.656 130.95 22.368 131.126 22.008C131.31 21.648 131.402 21.244 131.402 20.796C131.402 20.34 131.31 19.932 131.126 19.572C130.942 19.212 130.678 18.928 130.334 18.72C129.998 18.512 129.594 18.408 129.122 18.408C128.658 18.408 128.254 18.512 127.91 18.72C127.566 18.928 127.302 19.212 127.118 19.572C126.934 19.932 126.842 20.34 126.842 20.796C126.842 21.244 126.93 21.648 127.106 22.008C127.29 22.368 127.55 22.656 127.886 22.872C128.23 23.08 128.642 23.184 129.122 23.184ZM134.28 24V17.592H135.192V20.34H135.048C135.048 19.708 135.132 19.176 135.3 18.744C135.476 18.304 135.74 17.972 136.092 17.748C136.444 17.516 136.888 17.4 137.424 17.4H137.472C138.28 17.4 138.876 17.652 139.26 18.156C139.652 18.66 139.848 19.388 139.848 20.34V24H138.696V20.1C138.696 19.604 138.556 19.208 138.276 18.912C137.996 18.608 137.612 18.456 137.124 18.456C136.62 18.456 136.212 18.612 135.9 18.924C135.588 19.236 135.432 19.652 135.432 20.172V24H134.28ZM147.182 24.072C146.702 24.072 146.286 24.004 145.934 23.868C145.59 23.732 145.322 23.5 145.13 23.172C144.946 22.836 144.854 22.384 144.854 21.816V15.648H145.958V21.96C145.958 22.304 146.05 22.572 146.234 22.764C146.426 22.948 146.694 23.04 147.038 23.04H148.166V24.072H147.182ZM143.75 18.456V17.592H148.166V18.456H143.75ZM149.795 24V15.24H150.947V20.472H150.659C150.659 19.84 150.739 19.296 150.899 18.84C151.067 18.376 151.323 18.02 151.667 17.772C152.011 17.524 152.451 17.4 152.987 17.4H153.035C153.803 17.4 154.383 17.656 154.775 18.168C155.167 18.672 155.363 19.396 155.363 20.34V24H154.211V20.1C154.211 19.58 154.063 19.176 153.767 18.888C153.479 18.6 153.103 18.456 152.639 18.456C152.127 18.456 151.715 18.628 151.403 18.972C151.099 19.308 150.947 19.752 150.947 20.304V24H149.795ZM160.195 24.216C159.635 24.216 159.151 24.12 158.743 23.928C158.335 23.736 158.003 23.484 157.747 23.172C157.491 22.852 157.299 22.496 157.171 22.104C157.051 21.712 156.991 21.312 156.991 20.904V20.688C156.991 20.272 157.051 19.868 157.171 19.476C157.299 19.084 157.491 18.732 157.747 18.42C158.003 18.1 158.327 17.848 158.719 17.664C159.119 17.472 159.587 17.376 160.123 17.376C160.819 17.376 161.391 17.528 161.839 17.832C162.295 18.128 162.631 18.512 162.847 18.984C163.071 19.456 163.183 19.96 163.183 20.496V21.012H157.495V20.148H162.343L162.079 20.616C162.079 20.16 162.007 19.768 161.863 19.44C161.719 19.104 161.503 18.844 161.215 18.66C160.927 18.476 160.563 18.384 160.123 18.384C159.667 18.384 159.287 18.488 158.983 18.696C158.687 18.904 158.463 19.188 158.311 19.548C158.167 19.908 158.095 20.324 158.095 20.796C158.095 21.252 158.167 21.664 158.311 22.032C158.463 22.392 158.695 22.68 159.007 22.896C159.319 23.104 159.715 23.208 160.195 23.208C160.699 23.208 161.107 23.096 161.419 22.872C161.739 22.648 161.931 22.388 161.995 22.092H163.075C162.987 22.532 162.811 22.912 162.547 23.232C162.283 23.552 161.951 23.796 161.551 23.964C161.151 24.132 160.699 24.216 160.195 24.216Z" fill="black"/>
<path d="M60.8483 45L65.8283 30.4H70.4683L75.5883 45H72.6683L68.3283 32.34L69.3483 32.78H66.8483L67.8883 32.34L63.6883 45H60.8483ZM64.3283 41.12L65.2283 38.72H71.1483L72.0283 41.12H64.3283ZM77.537 49V34.14H79.737V38.82L79.397 38.8C79.4504 37.6933 79.677 36.7667 80.077 36.02C80.4904 35.2733 81.037 34.72 81.717 34.36C82.397 33.9867 83.157 33.8 83.997 33.8C84.7704 33.8 85.4637 33.94 86.077 34.22C86.7037 34.5 87.237 34.8933 87.677 35.4C88.1304 35.9067 88.477 36.5 88.717 37.18C88.957 37.8467 89.077 38.5667 89.077 39.34V39.76C89.077 40.5467 88.957 41.28 88.717 41.96C88.4904 42.6267 88.1504 43.22 87.697 43.74C87.257 44.2467 86.7237 44.6467 86.097 44.94C85.4704 45.22 84.7704 45.36 83.997 45.36C83.1837 45.36 82.437 45.1933 81.757 44.86C81.0904 44.5133 80.5504 43.9867 80.137 43.28C79.7237 42.56 79.4904 41.6333 79.437 40.5L80.317 41.84V49H77.537ZM83.297 43.02C83.897 43.02 84.417 42.8733 84.857 42.58C85.3104 42.2867 85.6637 41.88 85.917 41.36C86.1704 40.8267 86.297 40.2267 86.297 39.56C86.297 38.8667 86.1704 38.2667 85.917 37.76C85.6637 37.2533 85.3104 36.86 84.857 36.58C84.417 36.2867 83.897 36.14 83.297 36.14C82.7504 36.14 82.2437 36.26 81.777 36.5C81.3237 36.74 80.9504 37.0933 80.657 37.56C80.377 38.0267 80.237 38.5867 80.237 39.24V40.04C80.237 40.6667 80.3837 41.2 80.677 41.64C80.9704 42.08 81.3504 42.42 81.817 42.66C82.2837 42.9 82.777 43.02 83.297 43.02ZM91.5214 49V34.14H93.7214V38.82L93.3814 38.8C93.4347 37.6933 93.6614 36.7667 94.0614 36.02C94.4747 35.2733 95.0214 34.72 95.7014 34.36C96.3814 33.9867 97.1414 33.8 97.9814 33.8C98.7547 33.8 99.4481 33.94 100.061 34.22C100.688 34.5 101.221 34.8933 101.661 35.4C102.115 35.9067 102.461 36.5 102.701 37.18C102.941 37.8467 103.061 38.5667 103.061 39.34V39.76C103.061 40.5467 102.941 41.28 102.701 41.96C102.475 42.6267 102.135 43.22 101.681 43.74C101.241 44.2467 100.708 44.6467 100.081 44.94C99.4547 45.22 98.7547 45.36 97.9814 45.36C97.1681 45.36 96.4214 45.1933 95.7414 44.86C95.0747 44.5133 94.5347 43.9867 94.1214 43.28C93.7081 42.56 93.4747 41.6333 93.4214 40.5L94.3014 41.84V49H91.5214ZM97.2814 43.02C97.8814 43.02 98.4014 42.8733 98.8414 42.58C99.2947 42.2867 99.6481 41.88 99.9014 41.36C100.155 40.8267 100.281 40.2267 100.281 39.56C100.281 38.8667 100.155 38.2667 99.9014 37.76C99.6481 37.2533 99.2947 36.86 98.8414 36.58C98.4014 36.2867 97.8814 36.14 97.2814 36.14C96.7347 36.14 96.2281 36.26 95.7614 36.5C95.3081 36.74 94.9347 37.0933 94.6414 37.56C94.3614 38.0267 94.2214 38.5867 94.2214 39.24V40.04C94.2214 40.6667 94.3681 41.2 94.6614 41.64C94.9547 42.08 95.3347 42.42 95.8014 42.66C96.2681 42.9 96.7614 43.02 97.2814 43.02ZM115.022 45.38C113.729 45.38 112.636 45.1733 111.742 44.76C110.862 44.3467 110.189 43.78 109.722 43.06C109.256 42.3267 109.022 41.5 109.022 40.58H111.802C111.802 40.9667 111.909 41.3467 112.122 41.72C112.336 42.08 112.676 42.3733 113.142 42.6C113.622 42.8267 114.249 42.94 115.022 42.94C115.716 42.94 116.296 42.84 116.762 42.64C117.229 42.44 117.576 42.18 117.802 41.86C118.029 41.5267 118.142 41.1533 118.142 40.74C118.142 40.22 117.922 39.8067 117.482 39.5C117.042 39.18 116.362 38.98 115.442 38.9L114.162 38.8C112.762 38.68 111.642 38.2467 110.802 37.5C109.976 36.74 109.562 35.74 109.562 34.5C109.562 33.5667 109.782 32.7667 110.222 32.1C110.662 31.42 111.276 30.9 112.062 30.54C112.862 30.1667 113.796 29.98 114.862 29.98C115.969 29.98 116.922 30.1733 117.722 30.56C118.522 30.9467 119.142 31.4933 119.582 32.2C120.022 32.8933 120.242 33.7133 120.242 34.66H117.462C117.462 34.26 117.362 33.8933 117.162 33.56C116.976 33.2133 116.689 32.94 116.302 32.74C115.929 32.5267 115.449 32.42 114.862 32.42C114.302 32.42 113.836 32.5133 113.462 32.7C113.089 32.8867 112.809 33.14 112.622 33.46C112.436 33.78 112.342 34.1267 112.342 34.5C112.342 34.9533 112.509 35.3533 112.842 35.7C113.176 36.0333 113.702 36.2267 114.422 36.28L115.702 36.4C116.742 36.48 117.656 36.7 118.442 37.06C119.229 37.42 119.836 37.9067 120.262 38.52C120.702 39.1333 120.922 39.8733 120.922 40.74C120.922 41.66 120.682 42.4733 120.202 43.18C119.722 43.8733 119.036 44.4133 118.142 44.8C117.262 45.1867 116.222 45.38 115.022 45.38ZM128.019 45.14C127.019 45.14 126.192 45.0133 125.539 44.76C124.899 44.4933 124.419 44.0533 124.099 43.44C123.779 42.8133 123.619 41.9733 123.619 40.92L123.639 31.08H126.239L126.219 41.1C126.219 41.6333 126.359 42.0467 126.639 42.34C126.932 42.62 127.345 42.76 127.879 42.76H129.579V45.14H128.019ZM121.899 36.18V34.14H129.579V36.18H121.899ZM137.073 45.38C136.113 45.38 135.267 45.2267 134.533 44.92C133.8 44.6133 133.18 44.2 132.673 43.68C132.167 43.1467 131.78 42.5467 131.513 41.88C131.26 41.2133 131.133 40.52 131.133 39.8V39.38C131.133 38.6333 131.267 37.9267 131.533 37.26C131.813 36.58 132.207 35.98 132.713 35.46C133.233 34.9267 133.86 34.5133 134.593 34.22C135.327 33.9133 136.153 33.76 137.073 33.76C137.993 33.76 138.82 33.9133 139.553 34.22C140.287 34.5133 140.907 34.9267 141.413 35.46C141.933 35.98 142.327 36.58 142.593 37.26C142.86 37.9267 142.993 38.6333 142.993 39.38V39.8C142.993 40.52 142.86 41.2133 142.593 41.88C142.34 42.5467 141.96 43.1467 141.453 43.68C140.947 44.2 140.327 44.6133 139.593 44.92C138.86 45.2267 138.02 45.38 137.073 45.38ZM137.073 43C137.753 43 138.327 42.8533 138.793 42.56C139.26 42.2533 139.613 41.8467 139.853 41.34C140.093 40.82 140.213 40.2333 140.213 39.58C140.213 38.9133 140.087 38.3267 139.833 37.82C139.593 37.3 139.233 36.8933 138.753 36.6C138.287 36.2933 137.727 36.14 137.073 36.14C136.42 36.14 135.853 36.2933 135.373 36.6C134.907 36.8933 134.547 37.3 134.293 37.82C134.04 38.3267 133.913 38.9133 133.913 39.58C133.913 40.2333 134.033 40.82 134.273 41.34C134.527 41.8467 134.887 42.2533 135.353 42.56C135.82 42.8533 136.393 43 137.073 43ZM145.428 45V34.14H147.628V38.74H147.568C147.568 37.18 147.901 36 148.568 35.2C149.234 34.4 150.214 34 151.508 34H151.908V36.42H151.148C150.214 36.42 149.488 36.6733 148.968 37.18C148.461 37.6733 148.208 38.3933 148.208 39.34V45H145.428ZM158.549 45.38C157.616 45.38 156.796 45.22 156.089 44.9C155.396 44.58 154.816 44.1533 154.349 43.62C153.896 43.0733 153.549 42.4667 153.309 41.8C153.083 41.1333 152.969 40.4533 152.969 39.76V39.38C152.969 38.66 153.083 37.9667 153.309 37.3C153.549 36.62 153.896 36.02 154.349 35.5C154.816 34.9667 155.389 34.5467 156.069 34.24C156.749 33.92 157.536 33.76 158.429 33.76C159.603 33.76 160.583 34.02 161.369 34.54C162.169 35.0467 162.769 35.72 163.169 36.56C163.569 37.3867 163.769 38.28 163.769 39.24V40.24H154.149V38.54H162.029L161.169 39.38C161.169 38.6867 161.069 38.0933 160.869 37.6C160.669 37.1067 160.363 36.7267 159.949 36.46C159.549 36.1933 159.043 36.06 158.429 36.06C157.816 36.06 157.296 36.2 156.869 36.48C156.443 36.76 156.116 37.1667 155.889 37.7C155.676 38.22 155.569 38.8467 155.569 39.58C155.569 40.26 155.676 40.8667 155.889 41.4C156.103 41.92 156.429 42.3333 156.869 42.64C157.309 42.9333 157.869 43.08 158.549 43.08C159.229 43.08 159.783 42.9467 160.209 42.68C160.636 42.4 160.909 42.06 161.029 41.66H163.589C163.429 42.4067 163.123 43.06 162.669 43.62C162.216 44.18 161.636 44.6133 160.929 44.92C160.236 45.2267 159.443 45.38 158.549 45.38Z" fill="black"/>
</svg>
