<svg width="24" height="25" viewBox="0 0 24 25" fill="none" xmlns="http://www.w3.org/2000/svg">
<path d="M7.80012 2.32129H16.2001C19.4001 2.32129 22.0001 4.92129 22.0001 8.12129V16.5213C22.0001 18.0595 21.3891 19.5348 20.3013 20.6225C19.2136 21.7102 17.7384 22.3213 16.2001 22.3213H7.80012C4.60012 22.3213 2.00012 19.7213 2.00012 16.5213V8.12129C2.00012 6.58303 2.61119 5.10778 3.6989 4.02007C4.78661 2.93236 6.26187 2.32129 7.80012 2.32129ZM7.60012 4.32129C6.64534 4.32129 5.72967 4.70057 5.05454 5.3757C4.37941 6.05084 4.00012 6.96651 4.00012 7.92129V16.7213C4.00012 18.7113 5.61012 20.3213 7.60012 20.3213H16.4001C17.3549 20.3213 18.2706 19.942 18.9457 19.2669C19.6208 18.5917 20.0001 17.6761 20.0001 16.7213V7.92129C20.0001 5.93129 18.3901 4.32129 16.4001 4.32129H7.60012ZM17.2501 5.82129C17.5816 5.82129 17.8996 5.95299 18.134 6.18741C18.3684 6.42183 18.5001 6.73977 18.5001 7.07129C18.5001 7.40281 18.3684 7.72075 18.134 7.95517C17.8996 8.18959 17.5816 8.32129 17.2501 8.32129C16.9186 8.32129 16.6007 8.18959 16.3662 7.95517C16.1318 7.72075 16.0001 7.40281 16.0001 7.07129C16.0001 6.73977 16.1318 6.42183 16.3662 6.18741C16.6007 5.95299 16.9186 5.82129 17.2501 5.82129ZM12.0001 7.32129C13.3262 7.32129 14.598 7.84807 15.5357 8.78576C16.4733 9.72344 17.0001 10.9952 17.0001 12.3213C17.0001 13.6474 16.4733 14.9191 15.5357 15.8568C14.598 16.7945 13.3262 17.3213 12.0001 17.3213C10.674 17.3213 9.40227 16.7945 8.46459 15.8568C7.52691 14.9191 7.00012 13.6474 7.00012 12.3213C7.00012 10.9952 7.52691 9.72344 8.46459 8.78576C9.40227 7.84807 10.674 7.32129 12.0001 7.32129ZM12.0001 9.32129C11.2045 9.32129 10.4414 9.63736 9.8788 10.2C9.31619 10.7626 9.00012 11.5256 9.00012 12.3213C9.00012 13.1169 9.31619 13.88 9.8788 14.4426C10.4414 15.0052 11.2045 15.3213 12.0001 15.3213C12.7958 15.3213 13.5588 15.0052 14.1214 14.4426C14.6841 13.88 15.0001 13.1169 15.0001 12.3213C15.0001 11.5256 14.6841 10.7626 14.1214 10.2C13.5588 9.63736 12.7958 9.32129 12.0001 9.32129Z" fill="#082544"/>
</svg>
