<svg width="101" height="44" viewBox="0 0 101 44" fill="none" xmlns="http://www.w3.org/2000/svg">
<g clip-path="url(#clip0_3016_1600)">
<path d="M19.8239 33.1296C18.5061 33.1296 17.434 32.0575 17.434 30.7398C17.434 29.422 18.5061 28.3503 19.8239 28.3503C21.1416 28.3503 22.2137 29.422 22.2137 30.7398C22.2137 32.0575 21.1416 33.1296 19.8239 33.1296ZM19.8239 29.8503C19.3334 29.8503 18.934 30.2493 18.934 30.7398C18.934 31.2306 19.333 31.6296 19.8239 31.6296C20.3147 31.6296 20.7137 31.2306 20.7137 30.7398C20.7137 30.2493 20.3147 29.8503 19.8239 29.8503Z" fill="black"/>
<path d="M28.1316 33.1296C26.8139 33.1296 25.7421 32.0575 25.7421 30.7398C25.7421 29.422 26.8139 28.3503 28.1316 28.3503C29.4494 28.3503 30.5215 29.422 30.5215 30.7398C30.5215 32.0575 29.449 33.1296 28.1316 33.1296ZM28.1316 29.8503C27.6411 29.8503 27.2421 30.2493 27.2421 30.7398C27.2421 31.2306 27.6411 31.6296 28.1316 31.6296C28.6225 31.6296 29.0215 31.2306 29.0215 30.7398C29.0215 30.2493 28.6221 29.8503 28.1316 29.8503Z" fill="black"/>
<path d="M29.8814 26.4978H18.0992C16.9529 26.4978 15.9737 25.7174 15.718 24.5999L13.2726 13.921C13.2404 13.78 13.1429 13.6593 13.0116 13.5985L10.9832 12.6584C10.5137 12.4409 10.3094 11.8836 10.5269 11.4138C10.7444 10.9443 11.302 10.7399 11.7715 10.9574L13.7999 11.8975C14.4535 12.2001 14.9399 12.8001 15.1004 13.5025L17.5457 24.1821C17.605 24.4416 17.8326 24.6231 18.0992 24.6231H29.8814C30.1469 24.6231 30.3741 24.4428 30.4349 24.184L32.3361 16.0041C32.3905 15.7716 32.2915 15.6025 32.2281 15.5226C32.1644 15.4424 32.0219 15.3081 31.7834 15.3081H17.9084C17.3905 15.3081 16.9709 14.8885 16.9709 14.3706C16.9709 13.8528 17.3905 13.4331 17.9084 13.4331H31.7834C32.533 13.4331 33.2297 13.7695 33.6962 14.3564C34.1627 14.9433 34.3322 15.6985 34.1627 16.4286L32.2611 24.6089C32.002 25.7208 31.0236 26.4978 29.8814 26.4978Z" fill="black"/>
</g>
<path fill-rule="evenodd" clip-rule="evenodd" d="M78.3334 20C79.9903 20 81.3334 18.6568 81.3334 17C81.3334 15.3432 79.9903 14 78.3334 14C76.6765 14 75.3334 15.3432 75.3334 17C75.3334 18.6568 76.6765 20 78.3334 20ZM78.3334 22C81.0948 22 83.3334 19.7614 83.3334 17C83.3334 14.2386 81.0948 12 78.3334 12C75.572 12 73.3334 14.2386 73.3334 17C73.3334 19.7614 75.572 22 78.3334 22Z" fill="black"/>
<path fill-rule="evenodd" clip-rule="evenodd" d="M75.3334 26C73.1242 26 71.3334 27.7909 71.3334 30V31C71.3334 31.5523 70.8857 32 70.3334 32C69.7811 32 69.3334 31.5523 69.3334 31V30C69.3334 26.6863 72.0197 24 75.3334 24H81.3334C84.6471 24 87.3334 26.6863 87.3334 30V31C87.3334 31.5523 86.8857 32 86.3334 32C85.7811 32 85.3334 31.5523 85.3334 31V30C85.3334 27.7909 83.5425 26 81.3334 26H75.3334Z" fill="black"/>
<defs>
<clipPath id="clip0_3016_1600">
<rect width="24" height="24" fill="white" transform="translate(10.3334 10)"/>
</clipPath>
</defs>
</svg>
