<svg width="199" height="60" viewBox="0 0 199 60" fill="none" xmlns="http://www.w3.org/2000/svg">
<rect width="199" height="60" fill="white"/>
<path d="M18.4895 12.5564C18.0825 12.9872 17.8418 13.6561 17.8418 14.5228V45.4773C17.8418 46.3447 18.0825 47.0129 18.4895 47.4437L18.5931 47.5446L35.9332 30.2046V30.0001V29.7955L18.5931 12.4548L18.4895 12.5564Z" fill="url(#paint0_linear_3017_2041)"/>
<path d="M41.7123 35.9871L35.9326 30.2046V30.0002V29.7956L41.7136 24.0145L41.8439 24.0888L48.6921 27.98C50.6482 29.0913 50.6482 30.9097 48.6921 32.0217L41.8439 35.9129L41.7123 35.9871Z" fill="url(#paint1_linear_3017_2041)"/>
<path d="M41.8443 35.9119L35.9329 30L18.4893 47.4435C19.1342 48.1261 20.1985 48.2107 21.3979 47.5295L41.8443 35.9119Z" fill="url(#paint2_linear_3017_2041)"/>
<path d="M41.8443 24.088L21.3979 12.4704C20.1985 11.7893 19.1342 11.8738 18.4893 12.5564L35.9329 30.0001L41.8443 24.088Z" fill="url(#paint3_linear_3017_2041)"/>
<path d="M62.4932 24.048V22.968H64.6772C65.2052 22.968 65.6732 22.884 66.0812 22.716C66.4972 22.54 66.8492 22.3 67.1372 21.996C67.4332 21.692 67.6572 21.336 67.8092 20.928C67.9612 20.52 68.0372 20.08 68.0372 19.608C68.0372 19.112 67.9612 18.664 67.8092 18.264C67.6572 17.856 67.4332 17.504 67.1372 17.208C66.8492 16.904 66.4972 16.672 66.0812 16.512C65.6732 16.352 65.2052 16.272 64.6772 16.272H62.4932V15.192H64.5572C65.3492 15.192 66.0372 15.316 66.6212 15.564C67.2052 15.804 67.6892 16.132 68.0732 16.548C68.4652 16.956 68.7572 17.416 68.9492 17.928C69.1412 18.432 69.2372 18.948 69.2372 19.476V19.74C69.2372 20.252 69.1412 20.764 68.9492 21.276C68.7572 21.788 68.4652 22.252 68.0732 22.668C67.6892 23.084 67.2052 23.42 66.6212 23.676C66.0372 23.924 65.3492 24.048 64.5572 24.048H62.4932ZM61.5572 24.048V15.192H62.7332V24.048H61.5572ZM73.8333 24.216C73.2733 24.216 72.7813 24.12 72.3573 23.928C71.9333 23.736 71.5733 23.484 71.2773 23.172C70.9893 22.852 70.7693 22.496 70.6173 22.104C70.4733 21.712 70.4013 21.312 70.4013 20.904V20.688C70.4013 20.28 70.4773 19.88 70.6293 19.488C70.7813 19.088 71.0053 18.732 71.3013 18.42C71.5973 18.1 71.9573 17.848 72.3813 17.664C72.8053 17.472 73.2893 17.376 73.8333 17.376C74.3773 17.376 74.8613 17.472 75.2853 17.664C75.7093 17.848 76.0693 18.1 76.3653 18.42C76.6613 18.732 76.8853 19.088 77.0373 19.488C77.1893 19.88 77.2653 20.28 77.2653 20.688V20.904C77.2653 21.312 77.1893 21.712 77.0373 22.104C76.8933 22.496 76.6733 22.852 76.3773 23.172C76.0893 23.484 75.7333 23.736 75.3093 23.928C74.8853 24.12 74.3933 24.216 73.8333 24.216ZM73.8333 23.184C74.3133 23.184 74.7213 23.08 75.0573 22.872C75.4013 22.656 75.6613 22.368 75.8373 22.008C76.0213 21.648 76.1133 21.244 76.1133 20.796C76.1133 20.34 76.0213 19.932 75.8373 19.572C75.6533 19.212 75.3893 18.928 75.0453 18.72C74.7093 18.512 74.3053 18.408 73.8333 18.408C73.3693 18.408 72.9653 18.512 72.6213 18.72C72.2773 18.928 72.0133 19.212 71.8293 19.572C71.6453 19.932 71.5533 20.34 71.5533 20.796C71.5533 21.244 71.6413 21.648 71.8173 22.008C72.0013 22.368 72.2613 22.656 72.5973 22.872C72.9413 23.08 73.3533 23.184 73.8333 23.184ZM80.7455 24L82.0415 17.808H83.6015L85.1135 24H84.1295L82.6175 17.832H83.0015L81.6935 24H80.7455ZM80.1575 24V23.088H81.4895V24H80.1575ZM79.8935 24L78.0815 17.592H79.1855L80.9495 24H79.8935ZM84.3695 24V23.088H85.7015V24H84.3695ZM84.9095 24L86.4455 17.592H87.4895L85.9175 24H84.9095ZM89.0454 24V17.592H89.9574V20.34H89.8134C89.8134 19.708 89.8974 19.176 90.0654 18.744C90.2414 18.304 90.5054 17.972 90.8574 17.748C91.2094 17.516 91.6534 17.4 92.1894 17.4H92.2374C93.0454 17.4 93.6414 17.652 94.0254 18.156C94.4174 18.66 94.6134 19.388 94.6134 20.34V24H93.4614V20.1C93.4614 19.604 93.3214 19.208 93.0414 18.912C92.7614 18.608 92.3774 18.456 91.8894 18.456C91.3854 18.456 90.9774 18.612 90.6654 18.924C90.3534 19.236 90.1974 19.652 90.1974 20.172V24H89.0454ZM96.7932 24V15.24H97.9452V24H96.7932ZM95.9052 16.152V15.24H97.9452V16.152H95.9052ZM103.107 24.216C102.547 24.216 102.055 24.12 101.631 23.928C101.207 23.736 100.847 23.484 100.551 23.172C100.263 22.852 100.043 22.496 99.8908 22.104C99.7468 21.712 99.6748 21.312 99.6748 20.904V20.688C99.6748 20.28 99.7508 19.88 99.9028 19.488C100.055 19.088 100.279 18.732 100.575 18.42C100.871 18.1 101.231 17.848 101.655 17.664C102.079 17.472 102.563 17.376 103.107 17.376C103.651 17.376 104.135 17.472 104.559 17.664C104.983 17.848 105.343 18.1 105.639 18.42C105.935 18.732 106.159 19.088 106.311 19.488C106.463 19.88 106.539 20.28 106.539 20.688V20.904C106.539 21.312 106.463 21.712 106.311 22.104C106.167 22.496 105.947 22.852 105.651 23.172C105.363 23.484 105.007 23.736 104.583 23.928C104.159 24.12 103.667 24.216 103.107 24.216ZM103.107 23.184C103.587 23.184 103.995 23.08 104.331 22.872C104.675 22.656 104.935 22.368 105.111 22.008C105.295 21.648 105.387 21.244 105.387 20.796C105.387 20.34 105.295 19.932 105.111 19.572C104.927 19.212 104.663 18.928 104.319 18.72C103.983 18.512 103.579 18.408 103.107 18.408C102.643 18.408 102.239 18.512 101.895 18.72C101.551 18.928 101.287 19.212 101.103 19.572C100.919 19.932 100.827 20.34 100.827 20.796C100.827 21.244 100.915 21.648 101.091 22.008C101.275 22.368 101.535 22.656 101.871 22.872C102.215 23.08 102.627 23.184 103.107 23.184ZM112.14 24V22.08H111.948V19.86C111.948 19.42 111.832 19.088 111.6 18.864C111.376 18.64 111.044 18.528 110.604 18.528C110.356 18.528 110.1 18.532 109.836 18.54C109.572 18.548 109.32 18.556 109.08 18.564C108.84 18.572 108.632 18.584 108.456 18.6V17.592C108.632 17.576 108.816 17.564 109.008 17.556C109.208 17.54 109.412 17.532 109.62 17.532C109.828 17.524 110.028 17.52 110.22 17.52C110.876 17.52 111.412 17.6 111.828 17.76C112.244 17.912 112.552 18.164 112.752 18.516C112.952 18.868 113.052 19.344 113.052 19.944V24H112.14ZM110.04 24.168C109.56 24.168 109.144 24.088 108.792 23.928C108.448 23.76 108.18 23.52 107.988 23.208C107.804 22.896 107.712 22.52 107.712 22.08C107.712 21.624 107.812 21.244 108.012 20.94C108.22 20.636 108.52 20.408 108.912 20.256C109.304 20.096 109.776 20.016 110.328 20.016H112.068V20.88H110.28C109.816 20.88 109.46 20.992 109.212 21.216C108.964 21.44 108.84 21.728 108.84 22.08C108.84 22.432 108.964 22.716 109.212 22.932C109.46 23.148 109.816 23.256 110.28 23.256C110.552 23.256 110.812 23.208 111.06 23.112C111.308 23.008 111.512 22.84 111.672 22.608C111.84 22.368 111.932 22.04 111.948 21.624L112.26 22.08C112.22 22.536 112.108 22.92 111.924 23.232C111.748 23.536 111.5 23.768 111.18 23.928C110.868 24.088 110.488 24.168 110.04 24.168ZM117.843 24.216C117.387 24.216 116.967 24.132 116.583 23.964C116.199 23.796 115.863 23.56 115.575 23.256C115.295 22.952 115.075 22.6 114.915 22.2C114.763 21.8 114.687 21.368 114.687 20.904V20.688C114.687 20.232 114.763 19.804 114.915 19.404C115.067 19.004 115.279 18.652 115.551 18.348C115.831 18.044 116.159 17.808 116.535 17.64C116.919 17.464 117.343 17.376 117.807 17.376C118.295 17.376 118.739 17.48 119.139 17.688C119.539 17.888 119.867 18.204 120.122 18.636C120.378 19.068 120.523 19.628 120.555 20.316L120.075 19.548V15.24H121.227V24H120.315V21.156H120.651C120.619 21.884 120.467 22.476 120.195 22.932C119.923 23.38 119.579 23.708 119.163 23.916C118.755 24.116 118.315 24.216 117.843 24.216ZM117.999 23.208C118.391 23.208 118.747 23.12 119.067 22.944C119.387 22.768 119.643 22.516 119.835 22.188C120.027 21.852 120.122 21.46 120.122 21.012V20.46C120.122 20.02 120.023 19.648 119.823 19.344C119.631 19.032 119.371 18.796 119.043 18.636C118.723 18.468 118.371 18.384 117.987 18.384C117.563 18.384 117.187 18.484 116.859 18.684C116.539 18.884 116.287 19.164 116.103 19.524C115.927 19.884 115.839 20.308 115.839 20.796C115.839 21.284 115.931 21.712 116.115 22.08C116.299 22.44 116.555 22.72 116.883 22.92C117.211 23.112 117.583 23.208 117.999 23.208ZM129.122 24.216C128.562 24.216 128.07 24.12 127.646 23.928C127.222 23.736 126.862 23.484 126.566 23.172C126.278 22.852 126.058 22.496 125.906 22.104C125.762 21.712 125.69 21.312 125.69 20.904V20.688C125.69 20.28 125.766 19.88 125.918 19.488C126.07 19.088 126.294 18.732 126.59 18.42C126.886 18.1 127.246 17.848 127.67 17.664C128.094 17.472 128.578 17.376 129.122 17.376C129.666 17.376 130.15 17.472 130.574 17.664C130.998 17.848 131.358 18.1 131.654 18.42C131.95 18.732 132.174 19.088 132.326 19.488C132.478 19.88 132.554 20.28 132.554 20.688V20.904C132.554 21.312 132.478 21.712 132.326 22.104C132.182 22.496 131.962 22.852 131.666 23.172C131.378 23.484 131.022 23.736 130.598 23.928C130.174 24.12 129.682 24.216 129.122 24.216ZM129.122 23.184C129.602 23.184 130.01 23.08 130.346 22.872C130.69 22.656 130.95 22.368 131.126 22.008C131.31 21.648 131.402 21.244 131.402 20.796C131.402 20.34 131.31 19.932 131.126 19.572C130.942 19.212 130.678 18.928 130.334 18.72C129.998 18.512 129.594 18.408 129.122 18.408C128.658 18.408 128.254 18.512 127.91 18.72C127.566 18.928 127.302 19.212 127.118 19.572C126.934 19.932 126.842 20.34 126.842 20.796C126.842 21.244 126.93 21.648 127.106 22.008C127.29 22.368 127.55 22.656 127.886 22.872C128.23 23.08 128.642 23.184 129.122 23.184ZM134.28 24V17.592H135.192V20.34H135.048C135.048 19.708 135.132 19.176 135.3 18.744C135.476 18.304 135.74 17.972 136.092 17.748C136.444 17.516 136.888 17.4 137.424 17.4H137.472C138.28 17.4 138.876 17.652 139.26 18.156C139.652 18.66 139.848 19.388 139.848 20.34V24H138.696V20.1C138.696 19.604 138.556 19.208 138.276 18.912C137.996 18.608 137.612 18.456 137.124 18.456C136.62 18.456 136.212 18.612 135.9 18.924C135.588 19.236 135.432 19.652 135.432 20.172V24H134.28ZM147.182 24.072C146.702 24.072 146.286 24.004 145.934 23.868C145.59 23.732 145.322 23.5 145.13 23.172C144.946 22.836 144.854 22.384 144.854 21.816V15.648H145.958V21.96C145.958 22.304 146.05 22.572 146.234 22.764C146.426 22.948 146.694 23.04 147.038 23.04H148.166V24.072H147.182ZM143.75 18.456V17.592H148.166V18.456H143.75ZM149.795 24V15.24H150.947V20.472H150.659C150.659 19.84 150.739 19.296 150.899 18.84C151.067 18.376 151.323 18.02 151.667 17.772C152.011 17.524 152.451 17.4 152.987 17.4H153.035C153.803 17.4 154.383 17.656 154.775 18.168C155.167 18.672 155.363 19.396 155.363 20.34V24H154.211V20.1C154.211 19.58 154.063 19.176 153.767 18.888C153.479 18.6 153.103 18.456 152.639 18.456C152.127 18.456 151.715 18.628 151.403 18.972C151.099 19.308 150.947 19.752 150.947 20.304V24H149.795ZM160.195 24.216C159.635 24.216 159.151 24.12 158.743 23.928C158.335 23.736 158.003 23.484 157.747 23.172C157.491 22.852 157.299 22.496 157.171 22.104C157.051 21.712 156.991 21.312 156.991 20.904V20.688C156.991 20.272 157.051 19.868 157.171 19.476C157.299 19.084 157.491 18.732 157.747 18.42C158.003 18.1 158.327 17.848 158.719 17.664C159.119 17.472 159.587 17.376 160.123 17.376C160.819 17.376 161.391 17.528 161.839 17.832C162.295 18.128 162.631 18.512 162.847 18.984C163.071 19.456 163.183 19.96 163.183 20.496V21.012H157.495V20.148H162.343L162.079 20.616C162.079 20.16 162.007 19.768 161.863 19.44C161.719 19.104 161.503 18.844 161.215 18.66C160.927 18.476 160.563 18.384 160.123 18.384C159.667 18.384 159.287 18.488 158.983 18.696C158.687 18.904 158.463 19.188 158.311 19.548C158.167 19.908 158.095 20.324 158.095 20.796C158.095 21.252 158.167 21.664 158.311 22.032C158.463 22.392 158.695 22.68 159.007 22.896C159.319 23.104 159.715 23.208 160.195 23.208C160.699 23.208 161.107 23.096 161.419 22.872C161.739 22.648 161.931 22.388 161.995 22.092H163.075C162.987 22.532 162.811 22.912 162.547 23.232C162.283 23.552 161.951 23.796 161.551 23.964C161.151 24.132 160.699 24.216 160.195 24.216Z" fill="black"/>
<path d="M68.9184 45.38C67.665 45.38 66.5584 45.1733 65.5984 44.76C64.6517 44.3333 63.8517 43.7667 63.1984 43.06C62.5584 42.34 62.0717 41.5333 61.7384 40.64C61.4184 39.7333 61.2584 38.7933 61.2584 37.82V37.38C61.2584 36.46 61.4184 35.56 61.7384 34.68C62.0584 33.8 62.525 33.0067 63.1384 32.3C63.765 31.5933 64.5317 31.0333 65.4384 30.62C66.3584 30.1933 67.4117 29.98 68.5984 29.98C69.8784 29.98 71.0117 30.22 71.9984 30.7C72.985 31.1667 73.7784 31.8267 74.3784 32.68C74.9784 33.52 75.3317 34.5 75.4384 35.62H72.5784C72.485 34.9933 72.2517 34.46 71.8784 34.02C71.505 33.5667 71.0317 33.22 70.4584 32.98C69.8984 32.74 69.2784 32.62 68.5984 32.62C67.9184 32.62 67.2984 32.74 66.7384 32.98C66.1917 33.22 65.725 33.56 65.3384 34C64.9517 34.44 64.6517 34.9667 64.4384 35.58C64.2384 36.1933 64.1384 36.8733 64.1384 37.62C64.1384 38.4333 64.2517 39.16 64.4784 39.8C64.705 40.44 65.025 40.9867 65.4384 41.44C65.8517 41.88 66.3517 42.22 66.9384 42.46C67.525 42.6867 68.185 42.8 68.9184 42.8C69.8917 42.8 70.745 42.6 71.4784 42.2C72.2117 41.7867 72.745 41.2533 73.0784 40.6L72.5784 42.9V39.14H75.1984V42.38C74.5717 43.3267 73.7184 44.0667 72.6384 44.6C71.5584 45.12 70.3184 45.38 68.9184 45.38ZM68.4584 39.7V37.58H76.4184V39.7H68.4584ZM83.759 45.38C82.799 45.38 81.9523 45.2267 81.219 44.92C80.4857 44.6133 79.8657 44.2 79.359 43.68C78.8523 43.1467 78.4657 42.5467 78.199 41.88C77.9457 41.2133 77.819 40.52 77.819 39.8V39.38C77.819 38.6333 77.9523 37.9267 78.219 37.26C78.499 36.58 78.8923 35.98 79.399 35.46C79.919 34.9267 80.5457 34.5133 81.279 34.22C82.0123 33.9133 82.839 33.76 83.759 33.76C84.679 33.76 85.5057 33.9133 86.239 34.22C86.9723 34.5133 87.5923 34.9267 88.099 35.46C88.619 35.98 89.0123 36.58 89.279 37.26C89.5457 37.9267 89.679 38.6333 89.679 39.38V39.8C89.679 40.52 89.5457 41.2133 89.279 41.88C89.0257 42.5467 88.6457 43.1467 88.139 43.68C87.6323 44.2 87.0123 44.6133 86.279 44.92C85.5457 45.2267 84.7057 45.38 83.759 45.38ZM83.759 43C84.439 43 85.0123 42.8533 85.479 42.56C85.9457 42.2533 86.299 41.8467 86.539 41.34C86.779 40.82 86.899 40.2333 86.899 39.58C86.899 38.9133 86.7723 38.3267 86.519 37.82C86.279 37.3 85.919 36.8933 85.439 36.6C84.9723 36.2933 84.4123 36.14 83.759 36.14C83.1057 36.14 82.539 36.2933 82.059 36.6C81.5923 36.8933 81.2323 37.3 80.979 37.82C80.7257 38.3267 80.599 38.9133 80.599 39.58C80.599 40.2333 80.719 40.82 80.959 41.34C81.2123 41.8467 81.5723 42.2533 82.039 42.56C82.5057 42.8533 83.079 43 83.759 43ZM97.3332 45.38C96.3732 45.38 95.5265 45.2267 94.7932 44.92C94.0599 44.6133 93.4399 44.2 92.9332 43.68C92.4265 43.1467 92.0399 42.5467 91.7732 41.88C91.5199 41.2133 91.3932 40.52 91.3932 39.8V39.38C91.3932 38.6333 91.5265 37.9267 91.7932 37.26C92.0732 36.58 92.4665 35.98 92.9732 35.46C93.4932 34.9267 94.1199 34.5133 94.8532 34.22C95.5865 33.9133 96.4132 33.76 97.3332 33.76C98.2532 33.76 99.0799 33.9133 99.8132 34.22C100.547 34.5133 101.167 34.9267 101.673 35.46C102.193 35.98 102.587 36.58 102.853 37.26C103.12 37.9267 103.253 38.6333 103.253 39.38V39.8C103.253 40.52 103.12 41.2133 102.853 41.88C102.6 42.5467 102.22 43.1467 101.713 43.68C101.207 44.2 100.587 44.6133 99.8532 44.92C99.1199 45.2267 98.2799 45.38 97.3332 45.38ZM97.3332 43C98.0132 43 98.5865 42.8533 99.0532 42.56C99.5199 42.2533 99.8732 41.8467 100.113 41.34C100.353 40.82 100.473 40.2333 100.473 39.58C100.473 38.9133 100.347 38.3267 100.093 37.82C99.8532 37.3 99.4932 36.8933 99.0132 36.6C98.5465 36.2933 97.9865 36.14 97.3332 36.14C96.6799 36.14 96.1132 36.2933 95.6332 36.6C95.1665 36.8933 94.8065 37.3 94.5532 37.82C94.2999 38.3267 94.1732 38.9133 94.1732 39.58C94.1732 40.2333 94.2932 40.82 94.5332 41.34C94.7865 41.8467 95.1465 42.2533 95.6132 42.56C96.0799 42.8533 96.6532 43 97.3332 43ZM109.927 49.28C109.407 49.28 108.874 49.26 108.327 49.22C107.794 49.18 107.294 49.1267 106.827 49.06V46.74C107.307 46.7933 107.821 46.84 108.367 46.88C108.914 46.9333 109.427 46.96 109.907 46.96C110.801 46.96 111.521 46.8533 112.067 46.64C112.627 46.4267 113.034 46.0867 113.287 45.62C113.554 45.1667 113.687 44.5867 113.687 43.88V41.74L114.287 40.38C114.247 41.38 114.041 42.2333 113.667 42.94C113.294 43.6333 112.787 44.1667 112.147 44.54C111.507 44.9 110.767 45.08 109.927 45.08C109.181 45.08 108.501 44.94 107.887 44.66C107.287 44.38 106.767 43.9933 106.327 43.5C105.901 43.0067 105.567 42.4267 105.327 41.76C105.087 41.0933 104.967 40.38 104.967 39.62V39.2C104.967 38.44 105.087 37.7333 105.327 37.08C105.581 36.4133 105.934 35.8333 106.387 35.34C106.841 34.8467 107.381 34.4667 108.007 34.2C108.634 33.9333 109.327 33.8 110.087 33.8C110.981 33.8 111.754 33.9933 112.407 34.38C113.074 34.7667 113.594 35.3267 113.967 36.06C114.341 36.7933 114.547 37.6933 114.587 38.76L114.107 38.84V34.14H116.307V43.72C116.307 45.04 116.081 46.1067 115.627 46.92C115.174 47.7333 114.474 48.3267 113.527 48.7C112.594 49.0867 111.394 49.28 109.927 49.28ZM110.727 42.7C111.261 42.7 111.747 42.58 112.187 42.34C112.627 42.1 112.981 41.7533 113.247 41.3C113.514 40.8467 113.647 40.3 113.647 39.66V38.96C113.647 38.3467 113.507 37.8267 113.227 37.4C112.961 36.9733 112.607 36.6533 112.167 36.44C111.727 36.2133 111.247 36.1 110.727 36.1C110.141 36.1 109.621 36.24 109.167 36.52C108.727 36.7867 108.381 37.1667 108.127 37.66C107.874 38.1533 107.747 38.74 107.747 39.42C107.747 40.0867 107.874 40.6667 108.127 41.16C108.381 41.6533 108.727 42.0333 109.167 42.3C109.621 42.5667 110.141 42.7 110.727 42.7ZM119.48 45V30.4H122.26V45H119.48ZM118.12 32.48V30.4H122.26V32.48H118.12ZM130.294 45.38C129.36 45.38 128.54 45.22 127.834 44.9C127.14 44.58 126.56 44.1533 126.094 43.62C125.64 43.0733 125.294 42.4667 125.054 41.8C124.827 41.1333 124.714 40.4533 124.714 39.76V39.38C124.714 38.66 124.827 37.9667 125.054 37.3C125.294 36.62 125.64 36.02 126.094 35.5C126.56 34.9667 127.134 34.5467 127.814 34.24C128.494 33.92 129.28 33.76 130.174 33.76C131.347 33.76 132.327 34.02 133.114 34.54C133.914 35.0467 134.514 35.72 134.914 36.56C135.314 37.3867 135.514 38.28 135.514 39.24V40.24H125.894V38.54H133.774L132.914 39.38C132.914 38.6867 132.814 38.0933 132.614 37.6C132.414 37.1067 132.107 36.7267 131.694 36.46C131.294 36.1933 130.787 36.06 130.174 36.06C129.56 36.06 129.04 36.2 128.614 36.48C128.187 36.76 127.86 37.1667 127.634 37.7C127.42 38.22 127.314 38.8467 127.314 39.58C127.314 40.26 127.42 40.8667 127.634 41.4C127.847 41.92 128.174 42.3333 128.614 42.64C129.054 42.9333 129.614 43.08 130.294 43.08C130.974 43.08 131.527 42.9467 131.954 42.68C132.38 42.4 132.654 42.06 132.774 41.66H135.334C135.174 42.4067 134.867 43.06 134.414 43.62C133.96 44.18 133.38 44.6133 132.674 44.92C131.98 45.2267 131.187 45.38 130.294 45.38ZM144.812 40.52V38.06H147.652C148.226 38.06 148.706 37.9467 149.092 37.72C149.492 37.4933 149.792 37.18 149.992 36.78C150.206 36.38 150.312 35.92 150.312 35.4C150.312 34.88 150.206 34.42 149.992 34.02C149.792 33.62 149.492 33.3133 149.092 33.1C148.706 32.8733 148.226 32.76 147.652 32.76H144.812V30.3H147.412C148.639 30.3 149.679 30.5 150.532 30.9C151.399 31.3 152.059 31.8733 152.512 32.62C152.966 33.3533 153.192 34.2267 153.192 35.24V35.56C153.192 36.5733 152.966 37.4533 152.512 38.2C152.059 38.9333 151.399 39.5067 150.532 39.92C149.679 40.32 148.639 40.52 147.412 40.52H144.812ZM142.372 45V30.3H145.212V45H142.372ZM155.456 45V30.4H158.236V45H155.456ZM154.096 32.48V30.4H158.236V32.48H154.096ZM167.99 45V41.78H167.53V38.2C167.53 37.5733 167.377 37.1067 167.07 36.8C166.763 36.4933 166.29 36.34 165.65 36.34C165.317 36.34 164.917 36.3467 164.45 36.36C163.983 36.3733 163.51 36.3933 163.03 36.42C162.563 36.4333 162.143 36.4533 161.77 36.48V34.12C162.077 34.0933 162.423 34.0667 162.81 34.04C163.197 34.0133 163.59 34 163.99 34C164.403 33.9867 164.79 33.98 165.15 33.98C166.27 33.98 167.197 34.1267 167.93 34.42C168.677 34.7133 169.237 35.1733 169.61 35.8C169.997 36.4267 170.19 37.2467 170.19 38.26V45H167.99ZM164.49 45.28C163.703 45.28 163.01 45.14 162.41 44.86C161.823 44.58 161.363 44.18 161.03 43.66C160.71 43.14 160.55 42.5133 160.55 41.78C160.55 40.98 160.743 40.3267 161.13 39.82C161.53 39.3133 162.083 38.9333 162.79 38.68C163.51 38.4267 164.35 38.3 165.31 38.3H167.83V39.96H165.27C164.63 39.96 164.137 40.12 163.79 40.44C163.457 40.7467 163.29 41.1467 163.29 41.64C163.29 42.1333 163.457 42.5333 163.79 42.84C164.137 43.1467 164.63 43.3 165.27 43.3C165.657 43.3 166.01 43.2333 166.33 43.1C166.663 42.9533 166.937 42.7133 167.15 42.38C167.377 42.0333 167.503 41.5667 167.53 40.98L168.21 41.76C168.143 42.52 167.957 43.16 167.65 43.68C167.357 44.2 166.943 44.6 166.41 44.88C165.89 45.1467 165.25 45.28 164.49 45.28ZM172.711 49.28V46.9H174.751C175.138 46.9 175.458 46.8467 175.711 46.74C175.978 46.6467 176.198 46.4867 176.371 46.26C176.545 46.0467 176.678 45.7467 176.771 45.36L179.691 34.14H182.351L179.131 45.96C178.918 46.7733 178.618 47.42 178.231 47.9C177.845 48.3933 177.345 48.7467 176.731 48.96C176.131 49.1733 175.385 49.28 174.491 49.28H172.711ZM176.091 44.76V42.56H178.411V44.76H176.091ZM175.151 44.76L171.631 34.14H174.431L177.771 44.76H175.151Z" fill="black"/>
<defs>
<linearGradient id="paint0_linear_3017_2041" x1="34.3955" y1="14.1964" x2="10.9062" y2="37.6857" gradientUnits="userSpaceOnUse">
<stop stop-color="#00A0FF"/>
<stop offset="0.0066" stop-color="#00A2FF"/>
<stop offset="0.2601" stop-color="#00BEFF"/>
<stop offset="0.5122" stop-color="#00D2FF"/>
<stop offset="0.7604" stop-color="#00DFFF"/>
<stop offset="1" stop-color="#00E3FF"/>
</linearGradient>
<linearGradient id="paint1_linear_3017_2041" x1="51.239" y1="30.0008" x2="17.3721" y2="30.0008" gradientUnits="userSpaceOnUse">
<stop stop-color="#FFE000"/>
<stop offset="0.4087" stop-color="#FFBD00"/>
<stop offset="0.7754" stop-color="#FFA600"/>
<stop offset="1" stop-color="#FF9C00"/>
</linearGradient>
<linearGradient id="paint2_linear_3017_2041" x1="38.6322" y1="33.2123" x2="6.77889" y2="65.0656" gradientUnits="userSpaceOnUse">
<stop stop-color="#FF3743"/>
<stop offset="1" stop-color="#E30864"/>
</linearGradient>
<linearGradient id="paint3_linear_3017_2041" x1="14.0971" y1="2.2525" x2="28.321" y2="16.4764" gradientUnits="userSpaceOnUse">
<stop stop-color="#00A06F"/>
<stop offset="0.0685" stop-color="#00A86E"/>
<stop offset="0.4762" stop-color="#00CF6E"/>
<stop offset="0.8009" stop-color="#00E76D"/>
<stop offset="1" stop-color="#00EF6D"/>
</linearGradient>
</defs>
</svg>
